<svg width="96" height="96" xmlns="http://www.w3.org/2000/svg" xmlns:xlink="http://www.w3.org/1999/xlink" xml:space="preserve" overflow="hidden"><defs><clipPath id="clip0"><rect x="195" y="264" width="96" height="96"/></clipPath></defs><g clip-path="url(#clip0)" transform="translate(-195 -264)"><path d="M224.006 346.721 224.006 336.134C224.006 335.582 223.558 335.134 223.006 335.134L223.006 335.134C222.454 335.134 222.006 335.582 222.006 336.134L222.006 347.134C222.008 347.397 222.113 347.648 222.298 347.834L223.127 348.665C223.688 349.229 224.003 349.994 224 350.79L224 351.134 222.04 351.134C221.554 351.125 221.128 351.459 221.022 351.934 220.911 352.475 221.261 353.003 221.802 353.114 221.868 353.127 221.935 353.134 222.003 353.134L225.003 353.134C225.555 353.134 226.003 352.686 226.003 352.134L226.003 350.792C226.003 349.467 225.477 348.195 224.541 347.257Z"/><path d="M287.725 293.627 278.732 284.635 287.259 272.235C287.733 271.556 287.567 270.621 286.887 270.146 286.34 269.764 285.605 269.79 285.086 270.21L273.871 279.12C273.862 279.128 273.854 279.12 273.854 279.113L273.854 277.7C273.907 276.892 273.297 276.193 272.489 276.136 272.462 276.136 272.374 276.136 272.345 276.136 270.276 276.171 268.488 277.592 267.987 279.6 267.986 279.605 267.982 279.608 267.977 279.607 267.976 279.607 267.975 279.607 267.975 279.607 263.999 278.077 259.758 279.617 256.839 283.796L256.277 284.652C255.6 285.685 254.947 286.68 254.301 287.628 253.379 288.594 252.057 289.069 250.732 288.913 250.284 288.859 249.856 289.111 249.686 289.529 249.578 289.818 249.6 290.139 249.747 290.41 250.058 291.035 250.512 291.578 251.073 291.994 251.077 291.998 251.077 292.004 251.074 292.008 251.074 292.008 251.073 292.009 251.073 292.009 250.92 292.194 250.773 292.373 250.62 292.543 249.288 293.921 247.442 294.679 245.526 294.636 245.148 294.61 244.793 294.815 244.626 295.155 244.462 295.521 244.501 295.945 244.731 296.274 245.639 297.497 246.837 298.475 248.217 299.12 248.228 299.125 248.228 299.133 248.217 299.138 246.841 299.753 245.358 300.092 243.852 300.138L227.862 300.138C225.41 300.104 223.002 300.8 220.947 302.138L214.1 302.138C208.176 302.138 203.655 305.898 203.351 311.075 203.264 312.452 203.207 313.575 203.157 314.526 203.088 315.864 203.038 316.838 202.95 317.726 202.472 319.767 199.76 320.576 199.735 320.584 199.279 320.713 198.976 321.145 199.01 321.618 199.045 321.966 199.25 322.274 199.558 322.441 200.075 322.745 200.636 322.967 201.22 323.1 201.224 323.103 201.225 323.11 201.222 323.114 201.221 323.115 201.221 323.115 201.22 323.116 200.197 324.33 199.014 325.401 197.705 326.3 197.244 326.604 197.117 327.224 197.421 327.685 197.56 327.896 197.773 328.046 198.018 328.106 198.124 328.133 208.408 330.533 212.318 321.555 212.942 321.536 213.555 321.38 214.112 321.097 214.437 320.943 214.655 320.627 214.684 320.268 214.713 319.883 214.509 319.519 214.166 319.342 214.158 319.336 213.313 318.73 213.651 316.342 214 313.885 215.169 312.933 216 312.564L216 326.17 213.922 326.21C211.75 326.267 210.014 328.037 209.999 330.21L209.999 350.134C210.013 350.396 210.117 350.646 210.292 350.841L212.292 352.841C212.487 353.016 212.737 353.12 212.999 353.134L218.999 353.134C219.551 353.134 219.999 352.686 219.999 352.134L219.999 350.79C219.928 349.481 219.413 348.235 218.538 347.258L218.002 346.721 218.002 335.134 218.348 335.134C219.657 335.063 220.903 334.548 221.88 333.673L228.316 327.252C228.821 327.477 229.332 327.684 229.842 327.868 230.584 328.138 231.34 328.367 232.107 328.555 233.71 328.951 235.355 329.152 237.007 329.155L251.007 329.155 251.007 350.134C251.021 350.396 251.125 350.646 251.3 350.841L253.3 352.841C253.496 353.016 253.746 353.12 254.008 353.134L260.008 353.134C260.56 353.134 261.008 352.686 261.008 352.134L261.008 350.79C260.937 349.481 260.422 348.235 259.547 347.258L259.011 346.721 259.011 327.99C259.459 327.897 259.883 327.778 260.289 327.66 261.28 327.344 262.203 326.845 263.011 326.189L263.011 347.134C263.025 347.396 263.128 347.645 263.303 347.84L264.131 348.67C264.653 349.258 264.96 350.006 265 350.791L265 351.134 263.04 351.134C262.554 351.125 262.128 351.459 262.022 351.934 261.911 352.475 262.261 353.003 262.802 353.114 262.868 353.127 262.935 353.134 263.003 353.134L266.003 353.134C266.555 353.134 267.003 352.686 267.003 352.134L267.003 350.792C266.932 349.482 266.416 348.235 265.541 347.257L265.006 346.721 265.006 324.2 265.674 323.3C267.105 321.188 267.862 318.691 267.845 316.14L267.845 315.64C267.845 305.02 270.472 298.874 272.485 298.201L273.31 299.048C274.615 300.351 276.373 301.1 278.217 301.14L280.4 301.14C282.377 303.021 285.494 302.98 287.42 301.047L287.744 300.723C289.608 298.722 289.6 295.618 287.725 293.627ZM286.311 299.327 285.973 299.666C284.793 300.829 282.893 300.814 281.73 299.634 281.728 299.631 281.726 299.629 281.724 299.627L281.524 299.427C281.336 299.239 281.082 299.134 280.817 299.134L278.243 299.134C276.923 299.103 275.667 298.566 274.732 297.634L273.554 296.425C273.37 296.254 273.132 296.151 272.881 296.133 268.74 296.087 265.845 304.119 265.845 315.633L265.845 316.139C265.864 318.275 265.236 320.366 264.045 322.139L263.231 323.239C262.3 324.361 261.094 325.222 259.731 325.739 259.144 325.924 258.542 326.058 257.931 326.139 257.417 326.195 257.023 326.622 257.009 327.139L257.009 347.134C257.023 347.396 257.126 347.646 257.301 347.841L258.129 348.67C258.652 349.257 258.959 350.005 259 350.79L259 351.134 254.417 351.134 253.005 349.72 253.005 328.152C253.005 327.6 252.557 327.152 252.005 327.152L237.005 327.152C235.515 327.15 234.03 326.969 232.583 326.613 231.886 326.441 231.199 326.233 230.525 325.988 229.847 325.742 229.183 325.462 228.534 325.148 228.149 324.988 227.706 325.066 227.398 325.348L220.468 332.263C219.882 332.787 219.134 333.096 218.349 333.139L217.038 333.139C216.889 333.137 216.74 333.166 216.603 333.225 216.239 333.384 216.004 333.742 216.003 334.139L216.003 347.139C216.017 347.401 216.12 347.651 216.295 347.846L217.123 348.675C217.647 349.26 217.956 350.006 218 350.79L218 351.134 213.417 351.134 212.005 349.72 212.005 330.21C212.013 329.124 212.88 328.239 213.966 328.21L217.025 328.151C217.568 328.137 218.002 327.694 218.006 327.151L218.006 312.134C218.006 310.531 218.391 308.952 219.128 307.528 219.38 307.053 219.226 306.465 218.773 306.175 218.299 305.891 217.685 306.044 217.401 306.518 217.391 306.534 217.382 306.551 217.373 306.568 216.743 307.775 216.322 309.079 216.129 310.427 214.542 310.785 212.219 312.245 211.672 316.065 211.454 317.227 211.548 318.427 211.945 319.541L211.933 319.553C211.433 319.412 210.908 319.677 210.725 320.164 208.609 325.8 203.712 326.541 200.8 326.444 200.795 326.443 200.791 326.439 200.791 326.433 200.791 326.431 200.792 326.429 200.794 326.427 202.041 325.378 203.091 324.115 203.894 322.696 204.022 322.456 204.05 322.175 203.971 321.914 203.869 321.592 203.611 321.344 203.286 321.253 203.14 321.214 202.988 321.204 202.838 321.224 202.833 321.226 202.828 321.224 202.826 321.219 202.824 321.214 202.826 321.209 202.831 321.207 203.887 320.458 204.633 319.35 204.931 318.09L204.947 317.99C205.047 317.034 205.095 316.026 205.168 314.63 205.217 313.683 205.274 312.569 205.36 311.197 205.604 307.042 209.203 304.139 214.113 304.139L221.264 304.139C221.469 304.128 221.668 304.065 221.842 303.955 223.617 302.75 225.719 302.116 227.865 302.139L243.881 302.139C246.523 302.065 249.086 301.223 251.258 299.716 251.55 299.522 251.725 299.194 251.723 298.844 251.711 298.367 251.364 297.965 250.894 297.884 249.709 297.681 248.594 297.184 247.651 296.439 247.642 296.432 247.643 296.424 247.651 296.421 249.345 296.032 250.889 295.155 252.091 293.899 252.534 293.399 252.966 292.859 253.399 292.299 253.738 291.863 253.659 291.235 253.223 290.896 253.195 290.874 253.165 290.854 253.135 290.835 253.065 290.789 252.99 290.753 252.91 290.729 252.905 290.727 252.902 290.722 252.904 290.716 252.905 290.713 252.907 290.711 252.91 290.71 254.029 290.398 255.038 289.779 255.824 288.923L255.904 288.823C256.571 287.846 257.245 286.818 257.946 285.75L258.49 284.919C261.137 281.131 264.916 280.013 268.35 282.002 268.791 282.258 269.353 282.141 269.656 281.731 269.789 281.549 269.86 281.328 269.856 281.102L269.856 280.647C269.876 279.465 270.703 278.451 271.856 278.191L271.856 281.177C271.851 281.416 271.93 281.65 272.079 281.837 272.425 282.263 273.05 282.331 273.479 281.989L283.67 273.89C283.699 273.867 283.705 273.873 283.684 273.903L276.612 284.188C276.355 284.589 276.404 285.113 276.729 285.461L286.288 295.018C287.421 296.228 287.431 298.105 286.311 299.327Z"/><path d="M276.567 287.569C277.15 288.153 277.147 289.102 276.56 289.689 275.972 290.276 275.023 290.28 274.44 289.696 273.856 289.113 273.859 288.164 274.447 287.576 275.034 286.989 275.983 286.986 276.567 287.569Z"/></g></svg>